<svg width="30" height="30" viewBox="0 0 30 30" fill="none" xmlns="http://www.w3.org/2000/svg">
<path d="M9.14062 12.1875C9.14062 12.5391 9.07227 12.8711 8.93555 13.1836C8.79883 13.4961 8.61328 13.7695 8.37891 14.0039C8.14453 14.2383 7.87109 14.4238 7.55859 14.5605C7.24609 14.6973 6.91406 14.7656 6.5625 14.7656C6.21094 14.7656 5.87891 14.6973 5.56641 14.5605C5.25391 14.4238 4.98047 14.2383 4.74609 14.0039C4.51172 13.7695 4.32617 13.4961 4.18945 13.1836C4.05273 12.8711 3.98438 12.5391 3.98438 12.1875C3.98438 11.8359 4.05273 11.5039 4.18945 11.1914C4.32617 10.8789 4.51172 10.6055 4.74609 10.3711C4.98047 10.1367 5.25391 9.95117 5.56641 9.81445C5.87891 9.67773 6.21094 9.60938 6.5625 9.60938C6.91406 9.60938 7.24609 9.67773 7.55859 9.81445C7.87109 9.95117 8.14453 10.1367 8.37891 10.3711C8.61328 10.6055 8.79883 10.8789 8.93555 11.1914C9.07227 11.5039 9.14062 11.8359 9.14062 12.1875ZM6.5625 13.3594C6.88477 13.3594 7.1582 13.2471 7.38281 13.0225C7.60742 12.7979 7.72461 12.5195 7.73438 12.1875C7.73438 11.8652 7.62207 11.5918 7.39746 11.3672C7.17285 11.1426 6.89453 11.0254 6.5625 11.0156C6.24023 11.0156 5.9668 11.1279 5.74219 11.3525C5.51758 11.5771 5.40039 11.8555 5.39062 12.1875C5.39062 12.5098 5.50293 12.7832 5.72754 13.0078C5.95215 13.2324 6.23047 13.3496 6.5625 13.3594ZM14.0625 15.2344C14.4141 15.2344 14.7461 15.3027 15.0586 15.4395C15.3711 15.5762 15.6445 15.7617 15.8789 15.9961C16.1133 16.2305 16.2988 16.5039 16.4355 16.8164C16.5723 17.1289 16.6406 17.4609 16.6406 17.8125C16.6406 18.1641 16.5723 18.4961 16.4355 18.8086C16.2988 19.1211 16.1133 19.3945 15.8789 19.6289C15.6445 19.8633 15.3711 20.0488 15.0586 20.1855C14.7461 20.3223 14.4141 20.3906 14.0625 20.3906C13.7109 20.3906 13.3789 20.3223 13.0664 20.1855C12.7539 20.0488 12.4805 19.8633 12.2461 19.6289C12.0117 19.3945 11.8262 19.1211 11.6895 18.8086C11.5527 18.4961 11.4844 18.1641 11.4844 17.8125C11.4844 17.4609 11.5527 17.1289 11.6895 16.8164C11.8262 16.5039 12.0117 16.2305 12.2461 15.9961C12.4805 15.7617 12.7539 15.5762 13.0664 15.4395C13.3789 15.3027 13.7109 15.2344 14.0625 15.2344ZM14.0625 18.9844C14.3848 18.9844 14.6582 18.8721 14.8828 18.6475C15.1074 18.4229 15.2246 18.1445 15.2344 17.8125C15.2344 17.4902 15.1221 17.2168 14.8975 16.9922C14.6729 16.7676 14.3945 16.6504 14.0625 16.6406C13.7402 16.6406 13.4668 16.7529 13.2422 16.9775C13.0176 17.2021 12.9004 17.4805 12.8906 17.8125C12.8906 18.1348 13.0029 18.4082 13.2275 18.6328C13.4521 18.8574 13.7305 18.9746 14.0625 18.9844ZM12.334 9.375H13.916L8.29102 20.625H6.70898L12.334 9.375ZM20.625 5.625L30 15L20.625 24.375H0V5.625H20.625ZM19.8486 22.5L27.3486 15L19.8486 7.5H1.875V22.5H19.8486ZM22.5 14.0625C22.7539 14.0625 22.9736 14.1553 23.1592 14.3408C23.3447 14.5264 23.4375 14.7461 23.4375 15C23.4375 15.2539 23.3447 15.4736 23.1592 15.6592C22.9736 15.8447 22.7539 15.9375 22.5 15.9375C22.2461 15.9375 22.0264 15.8447 21.8408 15.6592C21.6553 15.4736 21.5625 15.2539 21.5625 15C21.5625 14.7461 21.6553 14.5264 21.8408 14.3408C22.0264 14.1553 22.2461 14.0625 22.5 14.0625Z" fill="black"/>
</svg>
