<svg width="30" height="30" viewBox="0 0 30 30" fill="none" xmlns="http://www.w3.org/2000/svg">
<path d="M3.75 8.54004V12.1875H1.875V6.45996L7.00195 3.88184L7.83691 5.56641L4.90723 7.03125L7.85156 8.49609L7.00195 10.1807L3.75 8.54004ZM13.125 2.91504L9.87305 4.55566L9.03809 2.87109L14.0625 0.351562L19.0869 2.87109L18.252 4.55566L15 2.91504V7.5H13.125V2.91504ZM15 25.21L18.252 23.5693L19.1016 25.2539L14.0625 27.7734L9.03809 25.2539L9.87305 23.5693L13.125 25.21V20.625H15V25.21ZM7.4707 17.71L8.33496 19.3799L4.90723 21.0938L7.83691 22.5586L7.00195 24.2432L1.875 21.665V15.9375H3.75V19.585L7.4707 17.71ZM14.0625 11.6016L18.252 9.50684L19.1016 11.1914L15 13.2422V17.8125H13.125V13.2422L9.03809 11.1914L9.87305 9.50684L14.0625 11.6016ZM21.123 3.88184L26.25 6.45996V12.1875H24.375V8.54004L21.123 10.1807L20.2881 8.49609L23.2178 7.03125L20.2881 5.56641L21.123 3.88184ZM24.375 19.585V15.9375H26.25V21.665L21.123 24.2432L20.2881 22.5586L23.2178 21.0938L19.79 19.3799L20.6543 17.71L24.375 19.585Z" fill="black"/>
</svg>
