<svg width="30" height="30" viewBox="0 0 30 30" fill="none" xmlns="http://www.w3.org/2000/svg">
<path d="M27.6562 3.75C27.9785 3.75 28.2812 3.80859 28.5645 3.92578C28.8477 4.04297 29.0967 4.21387 29.3115 4.43848C29.5264 4.66309 29.6924 4.91211 29.8096 5.18555C29.9268 5.45898 29.9902 5.76172 30 6.09375V22.0312C30 22.3535 29.9414 22.6562 29.8242 22.9395C29.707 23.2227 29.5361 23.4717 29.3115 23.6865C29.0869 23.9014 28.8379 24.0674 28.5645 24.1846C28.291 24.3018 27.9883 24.3652 27.6562 24.375H2.34375C2.02148 24.375 1.71875 24.3164 1.43555 24.1992C1.15234 24.082 0.90332 23.9111 0.688477 23.6865C0.473633 23.4619 0.307617 23.2129 0.19043 22.9395C0.0732422 22.666 0.00976562 22.3633 0 22.0312V6.09375C0 5.77148 0.0585938 5.46875 0.175781 5.18555C0.292969 4.90234 0.463867 4.65332 0.688477 4.43848C0.913086 4.22363 1.16211 4.05762 1.43555 3.94043C1.70898 3.82324 2.01172 3.75977 2.34375 3.75H27.6562ZM2.34375 5.625C2.20703 5.625 2.09473 5.66895 2.00684 5.75684C1.91895 5.84473 1.875 5.95703 1.875 6.09375V9.375H28.125V6.09375C28.125 5.95703 28.0811 5.84473 27.9932 5.75684C27.9053 5.66895 27.793 5.625 27.6562 5.625H2.34375ZM27.6562 22.5C27.793 22.5 27.9053 22.4561 27.9932 22.3682C28.0811 22.2803 28.125 22.168 28.125 22.0312V11.25H1.875V22.0312C1.875 22.168 1.91895 22.2803 2.00684 22.3682C2.09473 22.4561 2.20703 22.5 2.34375 22.5H27.6562ZM20.625 16.875H24.375V18.75H20.625V16.875Z" fill="black"/>
</svg>
