<svg width="30" height="30" viewBox="0 0 30 30" fill="none" xmlns="http://www.w3.org/2000/svg">
<g clip-path="url(#clip0)">
<path d="M5.62524 16.875C5.88892 16.875 6.13306 16.9238 6.35767 17.0215C6.58228 17.1191 6.77759 17.251 6.9436 17.417C7.10962 17.583 7.24634 17.7832 7.35376 18.0176C7.46118 18.252 7.51001 18.4961 7.50024 18.75C7.50024 19.0137 7.45142 19.2578 7.35376 19.4824C7.2561 19.707 7.12427 19.9023 6.95825 20.0684C6.79224 20.2344 6.59204 20.3711 6.35767 20.4785C6.12329 20.5859 5.87915 20.6348 5.62524 20.625C5.36157 20.625 5.11743 20.5762 4.89282 20.4785C4.66821 20.3809 4.4729 20.249 4.30688 20.083C4.14087 19.917 4.00415 19.7168 3.89673 19.4824C3.78931 19.248 3.74048 19.0039 3.75024 18.75C3.75024 18.4863 3.79907 18.2422 3.89673 18.0176C3.99439 17.793 4.12622 17.5977 4.29224 17.4316C4.45825 17.2656 4.65845 17.1289 4.89282 17.0215C5.1272 16.9141 5.37134 16.8652 5.62524 16.875ZM24.3752 16.875C24.6389 16.875 24.8831 16.9238 25.1077 17.0215C25.3323 17.1191 25.5276 17.251 25.6936 17.417C25.8596 17.583 25.9963 17.7832 26.1038 18.0176C26.2112 18.252 26.26 18.4961 26.2502 18.75C26.2502 19.0137 26.2014 19.2578 26.1038 19.4824C26.0061 19.707 25.8743 19.9023 25.7083 20.0684C25.5422 20.2344 25.342 20.3711 25.1077 20.4785C24.8733 20.5859 24.6292 20.6348 24.3752 20.625C24.1116 20.625 23.8674 20.5762 23.6428 20.4785C23.4182 20.3809 23.2229 20.249 23.0569 20.083C22.8909 19.917 22.7542 19.7168 22.6467 19.4824C22.5393 19.248 22.4905 19.0039 22.5002 18.75C22.5002 18.4863 22.5491 18.2422 22.6467 18.0176C22.7444 17.793 22.8762 17.5977 23.0422 17.4316C23.2083 17.2656 23.4084 17.1289 23.6428 17.0215C23.8772 16.9141 24.1213 16.8652 24.3752 16.875ZM29.4583 13.125L28.4915 14.0771C28.511 14.126 28.5598 14.2725 28.6379 14.5166C28.7161 14.7607 28.8088 15.0488 28.9163 15.3809C29.0237 15.7129 29.1458 16.0693 29.2825 16.4502C29.4192 16.8311 29.5364 17.1777 29.634 17.4902C29.7317 17.8027 29.8196 18.0664 29.8977 18.2812C29.9758 18.4961 30.01 18.6035 30.0002 18.6035V28.125C30.0002 28.3887 29.9514 28.6328 29.8538 28.8574C29.7561 29.082 29.6243 29.2773 29.4583 29.4434C29.2922 29.6094 29.092 29.7461 28.8577 29.8535C28.6233 29.9609 28.3792 30.0098 28.1252 30H26.2502C25.9866 30 25.7424 29.9512 25.5178 29.8535C25.2932 29.7559 25.0979 29.624 24.9319 29.458C24.7659 29.292 24.6292 29.0918 24.5217 28.8574C24.4143 28.623 24.3655 28.3789 24.3752 28.125H5.62524C5.62524 28.3887 5.57642 28.6328 5.47876 28.8574C5.3811 29.082 5.24927 29.2773 5.08325 29.4434C4.91724 29.6094 4.71704 29.7461 4.48267 29.8535C4.24829 29.9609 4.00415 30.0098 3.75024 30H1.87524C1.61157 30 1.36743 29.9512 1.14282 29.8535C0.918213 29.7559 0.7229 29.624 0.556885 29.458C0.390869 29.292 0.25415 29.0918 0.146729 28.8574C0.0393066 28.623 -0.00952148 28.3789 0.000244141 28.125V18.6035L0.102783 18.2959L0.366455 17.5049L0.718018 16.4502C0.844971 16.0693 0.962158 15.7129 1.06958 15.3809C1.177 15.0488 1.27466 14.7607 1.36255 14.5166C1.45044 14.2725 1.49927 14.126 1.50903 14.0771L0.542236 13.125H0.000244141V11.25H1.33325L2.16821 12.0996L3.2522 8.83301C3.40845 8.35449 3.63306 7.91992 3.92603 7.5293C4.21899 7.13867 4.56567 6.80176 4.96606 6.51855C5.36646 6.23535 5.79126 6.01562 6.24048 5.85937C6.6897 5.70312 7.17798 5.625 7.70532 5.625H22.2952C22.803 5.625 23.2864 5.70312 23.7454 5.85937C24.2043 6.01562 24.634 6.23047 25.0344 6.50391C25.4348 6.77734 25.7766 7.11426 26.0598 7.51465C26.343 7.91504 26.5725 8.35449 26.7483 8.83301L27.8323 12.0996L28.6672 11.25H30.0002V13.125H29.4583ZM7.70532 7.5C7.09009 7.5 6.54321 7.67578 6.0647 8.02734C5.58618 8.37891 5.24438 8.84277 5.03931 9.41894L3.79419 13.125H26.2063L24.9612 9.41894C24.7659 8.84277 24.429 8.37891 23.9504 8.02734C23.4719 7.67578 22.9202 7.5 22.2952 7.5H7.70532ZM20.6252 25.5322L19.1018 22.5H10.8987L9.37524 25.5322V26.25H20.6252V25.5322ZM28.1252 26.25V18.8965L28.0374 18.6328C27.9788 18.457 27.9055 18.2275 27.8176 17.9443C27.7297 17.6611 27.6272 17.3633 27.51 17.0508C27.3928 16.7383 27.2903 16.4307 27.2024 16.1279C27.1145 15.8252 27.0315 15.5762 26.9534 15.3809C26.8752 15.1855 26.8313 15.0586 26.8215 15H3.17896C3.15942 15.0488 3.11548 15.1758 3.04712 15.3809C2.97876 15.5859 2.89575 15.8301 2.7981 16.1133C2.70044 16.3965 2.5979 16.7041 2.49048 17.0361C2.38306 17.3682 2.2854 17.6709 2.19751 17.9443C2.10962 18.2178 2.03149 18.4424 1.96313 18.6182C1.89478 18.7939 1.86548 18.8867 1.87524 18.8965V26.25H7.50024V25.0928L9.72681 20.625H20.2737L22.5002 25.0928V26.25H28.1252Z" fill="black"/>
</g>
<defs>
<clipPath id="clip0">
<rect width="30" height="30" fill="white"/>
</clipPath>
</defs>
</svg>
