<svg width="24" height="24" viewBox="0 0 24 24" fill="none" xmlns="http://www.w3.org/2000/svg">
<path d="M18.75 18C19.0625 18 19.3555 18.0586 19.6289 18.1758C19.9023 18.293 20.1406 18.4531 20.3438 18.6562C20.5469 18.8594 20.707 19.0977 20.8242 19.3711C20.9414 19.6445 21 19.9375 21 20.25C21 20.5625 20.9414 20.8555 20.8242 21.1289C20.707 21.4023 20.5469 21.6406 20.3438 21.8438C20.1406 22.0469 19.9023 22.207 19.6289 22.3242C19.3555 22.4414 19.0625 22.5 18.75 22.5C18.4375 22.5 18.1445 22.4414 17.8711 22.3242C17.5977 22.207 17.3594 22.0469 17.1562 21.8438C16.9531 21.6406 16.793 21.4023 16.6758 21.1289C16.5586 20.8555 16.5 20.5625 16.5 20.25C16.5 20.0078 16.543 19.7578 16.6289 19.5H10.3711C10.457 19.7578 10.5 20.0078 10.5 20.25C10.5 20.5625 10.4414 20.8555 10.3242 21.1289C10.207 21.4023 10.0469 21.6406 9.84375 21.8438C9.64062 22.0469 9.40234 22.207 9.12891 22.3242C8.85547 22.4414 8.5625 22.5 8.25 22.5C7.9375 22.5 7.64453 22.4414 7.37109 22.3242C7.09766 22.207 6.85938 22.0469 6.65625 21.8438C6.45312 21.6406 6.29297 21.4023 6.17578 21.1289C6.05859 20.8555 6 20.5625 6 20.25C6 19.8203 6.11328 19.4219 6.33984 19.0547C6.56641 18.6875 6.87891 18.4102 7.27734 18.2227L2.21484 3H0V1.5H3.29297L4.28906 4.5H24L20.5078 15H7.79297L8.78906 18H18.75ZM4.79297 6L7.28906 13.5H19.418L21.9141 6H4.79297ZM9 20.25C9 20.0469 8.92578 19.8711 8.77734 19.7227C8.62891 19.5742 8.45312 19.5 8.25 19.5C8.04688 19.5 7.87109 19.5742 7.72266 19.7227C7.57422 19.8711 7.5 20.0469 7.5 20.25C7.5 20.4531 7.57422 20.6289 7.72266 20.7773C7.87109 20.9258 8.04688 21 8.25 21C8.45312 21 8.62891 20.9258 8.77734 20.7773C8.92578 20.6289 9 20.4531 9 20.25ZM18.75 21C18.9531 21 19.1289 20.9258 19.2773 20.7773C19.4258 20.6289 19.5 20.4531 19.5 20.25C19.5 20.0469 19.4258 19.8711 19.2773 19.7227C19.1289 19.5742 18.9531 19.5 18.75 19.5C18.5469 19.5 18.3711 19.5742 18.2227 19.7227C18.0742 19.8711 18 20.0469 18 20.25C18 20.4531 18.0742 20.6289 18.2227 20.7773C18.3711 20.9258 18.5469 21 18.75 21Z" fill="black"/>
</svg>
