<svg width="11" height="15" viewBox="0 0 11 15" fill="none" xmlns="http://www.w3.org/2000/svg">
<path d="M5.5 0C5.92969 0 6.34473 0.0561523 6.74512 0.168457C7.14551 0.280762 7.51904 0.437012 7.86572 0.637207C8.2124 0.837402 8.52734 1.08154 8.81055 1.36963C9.09375 1.65771 9.33789 1.9751 9.54297 2.32178C9.74805 2.66846 9.90674 3.04199 10.019 3.44238C10.1313 3.84277 10.1875 4.25781 10.1875 4.6875C10.1875 5.02441 10.1484 5.34424 10.0703 5.64697C9.99219 5.94971 9.875 6.25488 9.71875 6.5625L5.5 15L1.28125 6.5625C1.12988 6.25977 1.01514 5.95703 0.937012 5.6543C0.858887 5.35156 0.817383 5.0293 0.8125 4.6875C0.8125 4.25781 0.868652 3.84277 0.980957 3.44238C1.09326 3.04199 1.24951 2.66846 1.44971 2.32178C1.6499 1.9751 1.89404 1.66016 2.18213 1.37695C2.47021 1.09375 2.7876 0.849609 3.13428 0.644531C3.48096 0.439453 3.85449 0.280762 4.25488 0.168457C4.65527 0.0561523 5.07031 0 5.5 0ZM8.98633 6.19629V6.18896L8.99365 6.18164C9.11572 5.95215 9.2085 5.71045 9.27197 5.45654C9.33545 5.20264 9.36719 4.94629 9.36719 4.6875C9.36719 4.15527 9.26709 3.65479 9.06689 3.18604C8.8667 2.71729 8.58838 2.30713 8.23193 1.95557C7.87549 1.604 7.46533 1.32812 7.00146 1.12793C6.5376 0.927734 6.03711 0.825195 5.5 0.820312C4.96777 0.820312 4.46729 0.92041 3.99854 1.12061C3.52979 1.3208 3.11963 1.59912 2.76807 1.95557C2.4165 2.31201 2.14062 2.72217 1.94043 3.18604C1.74023 3.6499 1.6377 4.15039 1.63281 4.6875C1.63281 4.94629 1.66455 5.20264 1.72803 5.45654C1.7915 5.71045 1.88428 5.95215 2.00635 6.18164V6.18896L2.01367 6.19629L5.5 13.1689L8.98633 6.19629ZM5.5 1.93359C5.88086 1.93359 6.2373 2.00439 6.56934 2.146C6.90137 2.2876 7.19434 2.48535 7.44824 2.73926C7.70215 2.99316 7.89746 3.28369 8.03418 3.61084C8.1709 3.93799 8.24414 4.29688 8.25391 4.6875C8.25391 5.06836 8.18311 5.4248 8.0415 5.75684C7.8999 6.08887 7.70215 6.38184 7.44824 6.63574C7.19434 6.88965 6.90381 7.08496 6.57666 7.22168C6.24951 7.3584 5.89062 7.43164 5.5 7.44141C5.11914 7.44141 4.7627 7.37061 4.43066 7.229C4.09863 7.0874 3.80566 6.88965 3.55176 6.63574C3.29785 6.38184 3.10254 6.09131 2.96582 5.76416C2.8291 5.43701 2.75586 5.07812 2.74609 4.6875C2.74609 4.30664 2.81689 3.9502 2.9585 3.61816C3.1001 3.28613 3.29785 2.99316 3.55176 2.73926C3.80566 2.48535 4.09619 2.29004 4.42334 2.15332C4.75049 2.0166 5.10938 1.94336 5.5 1.93359ZM5.5 6.62109C5.76855 6.62109 6.02002 6.57227 6.25439 6.47461C6.48877 6.37695 6.69385 6.23779 6.86963 6.05713C7.04541 5.87646 7.18213 5.67139 7.27979 5.44189C7.37744 5.2124 7.42871 4.96094 7.43359 4.6875C7.43359 4.41895 7.38477 4.16748 7.28711 3.93311C7.18945 3.69873 7.05029 3.49365 6.86963 3.31787C6.68896 3.14209 6.48389 3.00537 6.25439 2.90771C6.0249 2.81006 5.77344 2.75879 5.5 2.75391C5.23145 2.75391 4.97998 2.80273 4.74561 2.90039C4.51123 2.99805 4.30615 3.13721 4.13037 3.31787C3.95459 3.49854 3.81787 3.70361 3.72021 3.93311C3.62256 4.1626 3.57129 4.41406 3.56641 4.6875C3.56641 4.95605 3.61523 5.20752 3.71289 5.44189C3.81055 5.67627 3.94971 5.88135 4.13037 6.05713C4.31104 6.23291 4.51611 6.36963 4.74561 6.46729C4.9751 6.56494 5.22656 6.61621 5.5 6.62109Z" fill="black"/>
</svg>
