<svg width="15" height="13" viewBox="0 0 15 13" fill="none" xmlns="http://www.w3.org/2000/svg">
<path d="M12.5024 4.97998C12.6392 4.84326 12.7979 4.74316 12.9785 4.67969C13.1592 4.61621 13.3447 4.58447 13.5352 4.58447C13.7402 4.58447 13.9307 4.61865 14.1064 4.68701C14.2822 4.75537 14.4336 4.85547 14.5605 4.9873C14.6875 5.11914 14.79 5.27051 14.8682 5.44141C14.9463 5.6123 14.9854 5.80273 14.9854 6.0127C14.9854 6.20312 14.9487 6.38867 14.8755 6.56934C14.8022 6.75 14.6973 6.90869 14.5605 7.04541L9.32373 12.2969L6.5625 12.9854L7.25098 10.2241L12.5024 4.97998ZM13.9087 6.38623C14.0112 6.28369 14.0625 6.15918 14.0625 6.0127C14.0625 5.85645 14.0137 5.73438 13.916 5.64648C13.8184 5.55859 13.6914 5.51221 13.5352 5.50732C13.4668 5.50732 13.4009 5.51709 13.3374 5.53662C13.2739 5.55615 13.2178 5.59033 13.1689 5.63916L8.10059 10.7075L7.85156 11.6963L8.84033 11.4473L13.9087 6.38623ZM15 0.8125V4.1084C14.8584 4.00586 14.7095 3.92285 14.5532 3.85938C14.397 3.7959 14.2334 3.74219 14.0625 3.69824V2.74609L7.5 6.02002L0.9375 2.74609V9.25H6.89941L5.96191 10.1875H0V0.8125H15ZM7.5 4.97998L13.9526 1.75H1.04736L7.5 4.97998Z" fill="white"/>
</svg>
