<svg width="15" height="16" viewBox="0 0 15 16" fill="none" xmlns="http://www.w3.org/2000/svg">
<path d="M11.7758 8.88851C11.9908 8.88851 12.1959 8.92759 12.3913 9.00575C12.5867 9.08391 12.7626 9.20116 12.9189 9.35748L14.531 10.9696C14.6825 11.121 14.7973 11.2944 14.8754 11.4898C14.9536 11.6853 14.9951 11.8929 15 12.1127C15 12.3276 14.9609 12.5328 14.8828 12.7282C14.8046 12.9236 14.6874 13.0995 14.531 13.2558L14.4284 13.3584C14.1646 13.6222 13.9228 13.8567 13.703 14.0619C13.4832 14.267 13.2536 14.438 13.0142 14.5748C12.7748 14.7116 12.5086 14.8191 12.2155 14.8972C11.9224 14.9754 11.5731 15.012 11.1676 15.0071C10.557 15.0071 9.92923 14.9119 9.28439 14.7214C8.63955 14.5308 7.9996 14.267 7.36453 13.93C6.72946 13.5929 6.10416 13.1923 5.48864 12.7282C4.87311 12.2641 4.29422 11.7585 3.75197 11.2114C3.20972 10.6643 2.70655 10.0829 2.24246 9.4674C1.77837 8.85187 1.38268 8.22657 1.05537 7.59151C0.728069 6.95644 0.469156 6.31893 0.278636 5.67897C0.0881157 5.03902 -0.00470195 4.42349 0.000183193 3.83239C0.000183193 3.42692 0.0343792 3.08008 0.102771 2.79186C0.171163 2.50363 0.276193 2.23984 0.417863 2.00046C0.559532 1.76109 0.730511 1.53393 0.930802 1.31899C1.13109 1.10404 1.36558 0.862227 1.63426 0.593544L1.75151 0.476301C1.90294 0.324862 2.07637 0.207618 2.27177 0.124571C2.46718 0.0415237 2.6748 0 2.89463 0C3.10957 0 3.31475 0.0415237 3.51015 0.124571C3.70556 0.207618 3.88143 0.324862 4.03775 0.476301L5.64985 2.0884C5.80128 2.23984 5.91609 2.41326 5.99425 2.60866C6.07241 2.80407 6.11393 3.01169 6.11882 3.23152C6.11882 3.44647 6.08218 3.63699 6.0089 3.80308C5.93563 3.96917 5.84525 4.12306 5.73778 4.26473C5.6303 4.40639 5.51306 4.53097 5.38605 4.63844C5.25903 4.74591 5.13935 4.85583 5.02699 4.96819C4.91463 5.08054 4.82426 5.18802 4.75587 5.2906C4.68747 5.39319 4.65083 5.51288 4.64595 5.64966C4.64595 5.8353 4.7119 5.99406 4.8438 6.12596L8.88136 10.1635C9.01326 10.2954 9.17203 10.3614 9.35767 10.3614C9.48468 10.3614 9.60192 10.3247 9.7094 10.2515C9.81687 10.1782 9.92678 10.0878 10.0391 9.98034C10.1515 9.87286 10.2614 9.75562 10.3689 9.62861C10.4764 9.50159 10.6009 9.38191 10.7426 9.26955C10.8843 9.15719 11.0357 9.06682 11.1969 8.99842C11.3581 8.93003 11.5511 8.89339 11.7758 8.88851ZM11.1676 14.0692C11.5193 14.0692 11.8124 14.0374 12.0469 13.9739C12.2814 13.9104 12.4964 13.8152 12.6918 13.6882C12.8872 13.5611 13.0728 13.4048 13.2487 13.2192C13.4245 13.0335 13.6322 12.8235 13.8715 12.589C14.0034 12.4571 14.0694 12.2983 14.0694 12.1127C14.0694 12.0248 14.0352 11.9222 13.9668 11.8049C13.8984 11.6877 13.8056 11.5607 13.6883 11.4239C13.5711 11.2871 13.4465 11.1528 13.3146 11.0209C13.1827 10.889 13.0459 10.7571 12.9043 10.6252C12.7626 10.4933 12.638 10.3785 12.5306 10.2808C12.4231 10.1831 12.3327 10.0976 12.2594 10.0243C12.1275 9.89241 11.9663 9.82646 11.7758 9.82646C11.6488 9.82646 11.5316 9.86309 11.4241 9.93637C11.3166 10.0096 11.2091 10.1 11.1017 10.2075C10.9942 10.315 10.8843 10.4322 10.7719 10.5592C10.6596 10.6862 10.5325 10.8059 10.3909 10.9183C10.2492 11.0306 10.0978 11.121 9.93655 11.1894C9.77534 11.2578 9.58238 11.2944 9.35767 11.2993C9.14272 11.2993 8.93754 11.2602 8.74214 11.1821C8.54673 11.1039 8.37087 10.9867 8.21454 10.8304L4.17698 6.79278C4.02554 6.64135 3.91074 6.46792 3.83257 6.27252C3.75441 6.07711 3.71289 5.86949 3.708 5.64966C3.708 5.43472 3.74464 5.2442 3.81792 5.0781C3.8912 4.91201 3.98157 4.75812 4.08904 4.61646C4.19652 4.47479 4.31376 4.35022 4.44077 4.24274C4.56779 4.13527 4.68747 4.02291 4.79983 3.90567C4.91219 3.78842 5.00256 3.68095 5.07096 3.58325C5.13935 3.48555 5.17599 3.3683 5.18087 3.23152C5.18087 3.041 5.11492 2.87979 4.98302 2.74789C4.91952 2.68438 4.83647 2.59645 4.73388 2.48409C4.63129 2.37173 4.51649 2.24716 4.38948 2.11038C4.26247 1.9736 4.13057 1.83681 3.99378 1.70003C3.857 1.56324 3.72022 1.43623 3.58343 1.31899C3.44665 1.20174 3.32208 1.11137 3.20972 1.04786C3.09736 0.984355 2.99233 0.947717 2.89463 0.937947C2.70899 0.937947 2.55023 1.0039 2.41833 1.13579L1.79547 1.75865C1.61472 1.9394 1.4584 2.12504 1.3265 2.31556C1.1946 2.50608 1.0969 2.71858 1.03339 2.95307C0.969883 3.18755 0.935687 3.48066 0.930802 3.83239C0.930802 4.37953 1.01873 4.94376 1.1946 5.52509C1.37046 6.10642 1.61716 6.68775 1.9347 7.26909C2.25223 7.85042 2.62594 8.42198 3.05584 8.98377C3.48573 9.54556 3.9547 10.0805 4.46276 10.5885C4.97081 11.0966 5.50573 11.5607 6.06752 11.9808C6.62932 12.4009 7.20088 12.7673 7.78221 13.08C8.36354 13.3926 8.93999 13.6344 9.51155 13.8054C10.0831 13.9764 10.6351 14.0643 11.1676 14.0692Z" fill="black"/>
</svg>
