<svg width="24" height="24" viewBox="0 0 24 24" fill="none" xmlns="http://www.w3.org/2000/svg">
<path d="M17.625 1.50001C18.5078 1.50001 19.3359 1.66798 20.1094 2.00391C20.8828 2.33985 21.5586 2.79298 22.1367 3.36329C22.7148 3.9336 23.168 4.60938 23.4961 5.39063C23.8242 6.17188 23.9922 7.00001 24 7.87501C24 8.72657 23.8398 9.54298 23.5195 10.3242C23.1992 11.1055 22.7383 11.793 22.1367 12.3867L12 22.5117L1.86328 12.3867C1.26953 11.793 0.8125 11.1055 0.492188 10.3242C0.171875 9.54298 0.0078125 8.72657 0 7.87501C0 7.00001 0.164062 6.17579 0.492188 5.40235C0.820312 4.62891 1.27734 3.95313 1.86328 3.37501C2.44922 2.79688 3.125 2.33985 3.89062 2.00391C4.65625 1.66798 5.48438 1.50001 6.375 1.50001C7.02344 1.50001 7.60156 1.57423 8.10938 1.72266C8.61719 1.8711 9.08594 2.07423 9.51562 2.33204C9.94531 2.58985 10.3594 2.90626 10.7578 3.28126C11.1562 3.65626 11.5703 4.0586 12 4.48829C12.4297 4.05079 12.8398 3.64845 13.2305 3.28126C13.6211 2.91407 14.0352 2.60157 14.4727 2.34376C14.9102 2.08595 15.3828 1.87891 15.8906 1.72266C16.3984 1.56641 16.9766 1.4922 17.625 1.50001ZM21.0703 11.3203C21.5312 10.8594 21.8828 10.332 22.125 9.73829C22.3672 9.14454 22.4883 8.52345 22.4883 7.87501C22.4883 7.19532 22.3633 6.56251 22.1133 5.97657C21.8633 5.39063 21.5195 4.87891 21.082 4.44141C20.6445 4.00391 20.1289 3.66407 19.5352 3.42188C18.9414 3.1797 18.3047 3.0547 17.625 3.04688C16.9688 3.04688 16.3867 3.14845 15.8789 3.35157C15.3711 3.5547 14.9023 3.82813 14.4727 4.17188C14.043 4.51563 13.6328 4.89454 13.2422 5.3086C12.8516 5.72266 12.4375 6.15626 12 6.60938C11.5781 6.18751 11.168 5.76173 10.7695 5.33204C10.3711 4.90235 9.95703 4.51563 9.52734 4.17188C9.09766 3.82813 8.625 3.54688 8.10938 3.32813C7.59375 3.10938 7.01562 3.00001 6.375 3.00001C5.70312 3.00001 5.07031 3.12501 4.47656 3.37501C3.88281 3.62501 3.36719 3.97266 2.92969 4.41798C2.49219 4.86329 2.14453 5.38282 1.88672 5.97657C1.62891 6.57032 1.5 7.20313 1.5 7.87501C1.5 8.52345 1.62109 9.14454 1.86328 9.73829C2.10547 10.332 2.46094 10.8594 2.92969 11.3203L12 20.3906L21.0703 11.3203Z" fill="black"/>
</svg>
