<svg width="14" height="15" viewBox="0 0 14 15" fill="none" xmlns="http://www.w3.org/2000/svg">
<path d="M8.80371 8.81104C9.46777 9.04053 10.0659 9.36035 10.5981 9.77051C11.1304 10.1807 11.5845 10.6592 11.9604 11.2061C12.3364 11.7529 12.6245 12.3462 12.8247 12.9858C13.0249 13.6255 13.125 14.2969 13.125 15H12.1875C12.1875 14.1992 12.0459 13.457 11.7627 12.7734C11.4795 12.0898 11.084 11.4941 10.5762 10.9863C10.0684 10.4785 9.4751 10.0854 8.79639 9.80713C8.11768 9.52881 7.37305 9.38477 6.5625 9.375C6.04004 9.375 5.53711 9.44092 5.05371 9.57275C4.57031 9.70459 4.12109 9.89014 3.70605 10.1294C3.29102 10.3687 2.9126 10.6592 2.5708 11.001C2.229 11.3428 1.93848 11.7212 1.69922 12.1362C1.45996 12.5513 1.27197 13.0029 1.13525 13.4912C0.998535 13.9795 0.932617 14.4824 0.9375 15H0C0 14.2969 0.102539 13.6255 0.307617 12.9858C0.512695 12.3462 0.803223 11.7554 1.1792 11.2134C1.55518 10.6714 2.00928 10.1978 2.5415 9.79248C3.07373 9.38721 3.67188 9.0625 4.33594 8.81836C3.95508 8.61328 3.61328 8.36426 3.31055 8.07129C3.00781 7.77832 2.75146 7.45361 2.5415 7.09717C2.33154 6.74072 2.16797 6.35742 2.05078 5.94727C1.93359 5.53711 1.875 5.11719 1.875 4.6875C1.875 4.03809 1.99707 3.43018 2.24121 2.86377C2.48535 2.29736 2.81982 1.79932 3.24463 1.36963C3.66943 0.939941 4.16504 0.605469 4.73145 0.366211C5.29785 0.126953 5.9082 0.00488281 6.5625 0C7.21191 0 7.81982 0.12207 8.38623 0.366211C8.95264 0.610352 9.45068 0.944824 9.88037 1.36963C10.3101 1.79443 10.6445 2.29004 10.8838 2.85645C11.123 3.42285 11.2451 4.0332 11.25 4.6875C11.25 5.11719 11.1938 5.53467 11.0815 5.93994C10.9692 6.34521 10.8057 6.72607 10.5908 7.08252C10.376 7.43896 10.1196 7.76367 9.82178 8.05664C9.52393 8.34961 9.18457 8.60107 8.80371 8.81104ZM2.8125 4.6875C2.8125 5.20508 2.91016 5.69092 3.10547 6.14502C3.30078 6.59912 3.56934 6.99463 3.91113 7.33154C4.25293 7.66846 4.65088 7.93701 5.10498 8.13721C5.55908 8.3374 6.04492 8.4375 6.5625 8.4375C7.08008 8.4375 7.56592 8.33984 8.02002 8.14453C8.47412 7.94922 8.86963 7.68066 9.20654 7.33887C9.54346 6.99707 9.81201 6.59912 10.0122 6.14502C10.2124 5.69092 10.3125 5.20508 10.3125 4.6875C10.3125 4.16992 10.2148 3.68408 10.0195 3.22998C9.82422 2.77588 9.55566 2.38037 9.21387 2.04346C8.87207 1.70654 8.47412 1.43799 8.02002 1.23779C7.56592 1.0376 7.08008 0.9375 6.5625 0.9375C6.04492 0.9375 5.55908 1.03516 5.10498 1.23047C4.65088 1.42578 4.25537 1.69434 3.91846 2.03613C3.58154 2.37793 3.31299 2.77588 3.11279 3.22998C2.9126 3.68408 2.8125 4.16992 2.8125 4.6875Z" fill="black"/>
</svg>
