<svg width="50" height="50" viewBox="0 0 50 50" fill="none" xmlns="http://www.w3.org/2000/svg">
<path d="M25 0C38.8071 0 50 11.1929 50 25C50 38.8071 38.8071 50 25 50C11.1929 50 0 38.8071 0 25C0 11.1929 11.1929 0 25 0Z" fill="#7F4DA0"/>
<path d="M31.6605 21.8316C31.539 20.8438 31.2353 20.0682 30.6962 19.3811C29.996 18.4964 29.1013 17.9667 27.7766 17.6524C26.9132 17.443 26.5645 17.467 26.2523 17.7522C25.9615 18.0194 25.9047 18.555 26.1269 18.902C26.2832 19.1538 26.4636 19.2439 26.965 19.3423C27.6328 19.4653 28.0944 19.6247 28.5142 19.8647C29.4052 20.3793 29.8202 21.1844 29.8647 22.488C29.8854 23.0999 29.9383 23.2881 30.1521 23.5051C30.5482 23.9019 31.2533 23.8248 31.5525 23.3499C31.6622 23.171 31.679 23.0931 31.6905 22.6775C31.6982 22.4203 31.6871 22.0372 31.6605 21.8316Z" fill="white"/>
<path d="M35.1506 22.9455C34.9747 19.919 33.7909 17.4841 31.6724 15.771C30.4787 14.8083 29.0359 14.1464 27.4545 13.8246C26.8751 13.7094 25.8085 13.6161 25.6255 13.6695C25.4528 13.7189 25.2086 13.9058 25.0998 14.075C24.9846 14.2583 24.9586 14.6677 25.0569 14.9045C25.2154 15.3003 25.5102 15.4402 26.336 15.5125C27.609 15.6238 28.9221 16.071 29.9142 16.7332C31.0468 17.4871 31.9472 18.5182 32.5296 19.7299C33.0329 20.771 33.3424 22.2713 33.3338 23.6149C33.3309 24.1007 33.406 24.3752 33.6013 24.5758C33.8963 24.8843 34.3263 24.9518 34.7058 24.7469C35.1263 24.5257 35.2247 24.1375 35.1506 22.9455Z" fill="white"/>
<path d="M39.0127 34.6003C38.9536 34.4273 38.8154 34.1605 38.7168 34.0073C38.095 33.0684 34.7547 30.4544 33.087 29.5995C32.1347 29.1103 31.4292 28.9473 30.9062 29.1003C30.3437 29.2585 30.0476 29.5204 29.1052 30.6916C28.7253 31.161 28.3355 31.6008 28.2319 31.67C27.9753 31.8479 27.472 31.9912 27.1168 31.9912C26.2928 31.9862 24.7978 31.4526 23.6481 30.7508C22.7551 30.2073 21.6104 29.2338 20.7321 28.2702C19.6959 27.1386 18.9904 26.1404 18.4328 25.0137C17.7125 23.5659 17.5299 22.6813 17.8308 22.0339C17.9049 21.8709 18.0037 21.698 18.0479 21.6436C18.0924 21.5943 18.5563 21.2137 19.0693 20.7986C20.0759 19.9981 20.2388 19.8153 20.4262 19.2668C20.663 18.57 20.599 17.8584 20.2338 17.142C19.9525 16.5983 19.2174 15.4124 18.6845 14.6465C17.979 13.6384 16.2224 11.484 15.872 11.1923C15.2405 10.6784 14.4314 10.5895 13.5382 10.9354C12.5959 11.301 10.8295 12.7243 10.0745 13.7175C9.39364 14.6169 9.13221 15.2543 9.0927 16.0943C9.05819 16.7861 9.11738 17.0727 9.4825 17.9573C12.3393 24.8951 16.6023 30.4346 22.4591 34.8326C25.5181 37.1303 28.6907 38.8797 31.9818 40.0756C33.901 40.7723 34.7349 40.8069 35.7168 40.2337C36.1313 39.9866 37.1575 38.9341 37.7299 38.1681C38.6772 36.8931 39.0276 36.3052 39.1263 35.8357C39.1953 35.5145 39.1411 34.9561 39.0127 34.6003Z" fill="white"/>
<path d="M38.7037 23.6405C38.6404 21.9287 38.3522 20.5245 37.7512 18.9589C37.1578 17.419 36.5573 16.414 35.4231 15.0548C34.351 13.7804 33.518 13.0527 32.1972 12.2428C30.3544 11.1143 28.1117 10.3674 25.5983 10.0533C24.7413 9.94358 24.5473 9.95142 24.2844 10.1269C23.7748 10.4593 23.7816 11.2882 24.2927 11.6156C24.462 11.7198 24.6121 11.7578 25.2977 11.8475C26.3502 11.9892 27.027 12.1227 27.83 12.3419C30.979 13.2026 33.4005 14.9622 35.0195 17.5742C36.3743 19.7512 36.9367 21.9284 36.8569 24.7092C36.8291 25.6492 36.8493 25.8146 36.9929 26.0405C37.2681 26.4615 37.9939 26.5448 38.3662 26.1954C38.5978 25.9825 38.6415 25.8227 38.6871 25.0181C38.709 24.5983 38.7137 23.9788 38.7037 23.6405Z" fill="white"/>
</svg>
